<svg width="194" height="77" viewBox="0 0 194 77" fill="none" xmlns="http://www.w3.org/2000/svg">
<g clip-path="url(#clip0_1_148)">
<path d="M43.6846 22.2917H85.2449L85.9509 39.9802H83.6026C82.5358 33.8964 81.0459 29.9369 79.1269 28.0894C76.9341 25.9464 73.802 24.8733 69.7306 24.8733H61.5068C60.6982 24.8733 60.1103 25.0662 59.7402 25.4425C59.37 25.822 59.1865 26.3912 59.1865 27.1439V45.5384H63.5814C66.0262 45.5384 67.9794 44.7359 69.432 43.1279C70.8876 41.5167 71.6714 39.0347 71.7896 35.6786H74.2965V58.7666H71.7896C71.6279 54.944 70.8409 52.2132 69.432 50.5771C68.023 48.9411 66.0759 48.1231 63.5814 48.1231H59.1865V67.5969C59.1865 68.7539 59.4602 69.5626 60.017 70.0322C60.5675 70.505 61.5193 70.7414 62.8785 70.7414H68.1909V73.323H43.694V70.7414H48.966C50.0266 70.7414 50.7855 70.5268 51.2365 70.1007C51.6875 69.6808 51.9115 68.981 51.9115 68.0199V27.4331C51.9115 26.5094 51.6751 25.8531 51.1992 25.4643C50.7233 25.0693 49.8991 24.8733 48.7203 24.8733H43.694V22.2917H43.6846Z" fill="white"/>
<path d="M89.6584 22.2917H116.025C119.934 22.2917 123.259 22.9854 126 24.3663C129.405 26.1112 132.298 29.0225 134.684 33.0939C137.066 37.1685 138.254 41.9833 138.254 47.5508C138.254 52.1509 137.539 56.2908 136.114 59.9703C135.032 62.8007 133.368 65.2703 131.125 67.3854C128.88 69.5035 126.146 71.0898 122.93 72.1535C120.513 72.9311 117.288 73.323 113.263 73.323H89.6584V70.7414H94.4826C95.6987 70.7414 96.5416 70.5455 97.0144 70.1567C97.4872 69.7648 97.7204 69.1582 97.7204 68.3216V27.2247C97.7204 26.5094 97.4654 25.9402 96.9584 25.5141C96.4545 25.0879 95.7547 24.8733 94.8589 24.8733H89.6584V22.2917ZM108.05 24.8733C107.011 24.8733 106.24 25.091 105.745 25.5327C105.244 25.9682 104.999 26.6244 104.999 27.4953V68.222C104.999 69.0525 105.288 69.6777 105.866 70.1007C106.445 70.5299 107.425 70.7414 108.809 70.7414H113.182C117.095 70.7414 120.519 69.7399 123.458 67.7368C125.378 66.4025 126.833 64.527 127.832 62.1133C129.197 58.8444 129.881 54.3406 129.881 48.5834C129.881 40.0735 128.385 33.8373 125.399 29.881C122.852 26.5436 119.014 24.8764 113.875 24.8764H108.044L108.05 24.8733Z" fill="white"/>
<path d="M144.634 22.2917H171.006C174.916 22.2917 178.241 22.9854 180.984 24.3663C184.387 26.1112 187.282 29.0225 189.662 33.0939C192.044 37.1685 193.236 41.9833 193.236 47.5508C193.236 52.1509 192.52 56.2908 191.093 59.9703C190.013 62.8007 188.349 65.2703 186.104 67.3854C183.858 69.5035 181.127 71.0898 177.908 72.1535C175.491 72.9311 172.269 73.323 168.238 73.323H144.63V70.7414H149.455C150.671 70.7414 151.517 70.5455 151.986 70.1567C152.459 69.7648 152.696 69.1582 152.696 68.3216V27.2247C152.696 26.5094 152.437 25.9402 151.937 25.5141C151.433 25.0879 150.73 24.8733 149.834 24.8733H144.634V22.2917ZM163.028 24.8733C161.986 24.8733 161.218 25.091 160.72 25.5327C160.223 25.9682 159.974 26.6244 159.974 27.4953V68.222C159.974 69.0525 160.26 69.6777 160.838 70.1007C161.414 70.5299 162.403 70.7414 163.787 70.7414H168.163C172.073 70.7414 175.501 69.7399 178.437 67.7368C180.359 66.4025 181.815 64.527 182.81 62.1133C184.178 58.8444 184.856 54.3406 184.856 48.5834C184.856 40.0735 183.367 33.8373 180.381 29.881C177.84 26.5436 173.998 24.8764 168.857 24.8764H163.025L163.028 24.8733Z" fill="white"/>
<path d="M16.0462 35.237C16.0462 35.237 29.5171 26.584 30.9012 13.6606C29.8903 9.03241 28.6804 6.01849 28.6804 6.01849C29.8685 18.0617 16.8642 26.4098 16.8642 26.4098C0.967313 34.9135 -0.482102 48.5678 0.10264 56.0855C1.79466 48.1728 6.28598 40.4561 16.0462 35.237Z" fill="white"/>
<path d="M2.34203 76.0476C2.34203 76.0476 -4.63444 53.1898 18.2016 40.9724C18.2016 40.9724 31.209 32.6243 30.0209 20.5842C30.0209 20.5842 48.2163 65.5751 2.34203 76.0476Z" fill="white"/>
<path d="M21.2156 1.0544L23.2248 0L22.8392 2.23944L24.469 3.8226L22.2233 4.14918L21.2156 6.18645L20.214 4.14918L17.9653 3.8226L19.5889 2.23944L19.2094 0L21.2156 1.0544Z" fill="white"/>
<path d="M19.6728 10.2516L21.4519 9.31854L21.1098 11.2936L22.5468 12.6964L20.5624 12.9856L19.6728 14.7865L18.7864 12.9856L16.7958 12.6964L18.2359 11.2936L17.8999 9.31854L19.6728 10.2516Z" fill="white"/>
<path d="M14.208 17.6014L15.8036 16.7616L15.4988 18.5376L16.7896 19.7942L15.0042 20.0554L14.208 21.6728L13.4117 20.0554L11.6264 19.7942L12.9172 18.5376L12.6124 16.7616L14.208 17.6014Z" fill="white"/>
<path d="M7.87223 24.1144L9.17546 23.4301L8.92975 24.8826L9.98415 25.9122L8.5254 26.1237L7.87223 27.4424L7.22217 26.1237L5.76343 25.9122L6.81783 24.8826L6.569 23.4301L7.87223 24.1144Z" fill="white"/>
</g>
<defs>
<clipPath id="clip0_1_148">
<rect width="193.239" height="76.0476" fill="white"/>
</clipPath>
</defs>
</svg>
